<mxfile host="app.diagrams.net" modified="2021-09-29T05:36:01.397Z" agent="5.0 (Windows NT 10.0; Win64; x64) AppleWebKit/537.36 (KHTML, like Gecko) Chrome/93.0.4577.82 Safari/537.36" etag="MnCAMVp3Uxy9u-5wvqTr" version="15.2.9" type="github">
  <diagram id="9UXiFgFK8uHCKoMILkwZ" name="Page-1">
    <mxGraphModel dx="868" dy="1651" grid="1" gridSize="10" guides="1" tooltips="1" connect="1" arrows="1" fold="1" page="1" pageScale="1" pageWidth="827" pageHeight="1169" math="0" shadow="0">
      <root>
        <mxCell id="0" />
        <mxCell id="1" parent="0" />
        <mxCell id="Wrb9--33hP8pwqUoPA6g-3" value="" style="edgeStyle=orthogonalEdgeStyle;rounded=0;orthogonalLoop=1;jettySize=auto;html=1;" edge="1" parent="1" source="Wrb9--33hP8pwqUoPA6g-1" target="Wrb9--33hP8pwqUoPA6g-2">
          <mxGeometry relative="1" as="geometry" />
        </mxCell>
        <mxCell id="Wrb9--33hP8pwqUoPA6g-1" value="Start" style="rounded=1;whiteSpace=wrap;html=1;" vertex="1" parent="1">
          <mxGeometry x="310" y="-320" width="120" height="60" as="geometry" />
        </mxCell>
        <mxCell id="Wrb9--33hP8pwqUoPA6g-7" value="" style="edgeStyle=orthogonalEdgeStyle;rounded=0;orthogonalLoop=1;jettySize=auto;html=1;" edge="1" parent="1" source="Wrb9--33hP8pwqUoPA6g-2" target="Wrb9--33hP8pwqUoPA6g-6">
          <mxGeometry relative="1" as="geometry" />
        </mxCell>
        <mxCell id="Wrb9--33hP8pwqUoPA6g-2" value="create user" style="whiteSpace=wrap;html=1;rounded=1;" vertex="1" parent="1">
          <mxGeometry x="310" y="-180" width="120" height="60" as="geometry" />
        </mxCell>
        <mxCell id="Wrb9--33hP8pwqUoPA6g-9" value="" style="edgeStyle=orthogonalEdgeStyle;rounded=0;orthogonalLoop=1;jettySize=auto;html=1;" edge="1" parent="1" source="Wrb9--33hP8pwqUoPA6g-6" target="Wrb9--33hP8pwqUoPA6g-8">
          <mxGeometry relative="1" as="geometry" />
        </mxCell>
        <mxCell id="Wrb9--33hP8pwqUoPA6g-11" value="" style="edgeStyle=orthogonalEdgeStyle;rounded=0;orthogonalLoop=1;jettySize=auto;html=1;" edge="1" parent="1" source="Wrb9--33hP8pwqUoPA6g-6" target="Wrb9--33hP8pwqUoPA6g-10">
          <mxGeometry relative="1" as="geometry">
            <Array as="points">
              <mxPoint x="550" y="5" />
              <mxPoint x="550" y="5" />
            </Array>
          </mxGeometry>
        </mxCell>
        <mxCell id="Wrb9--33hP8pwqUoPA6g-6" value="Join or Create" style="rhombus;whiteSpace=wrap;html=1;rounded=1;" vertex="1" parent="1">
          <mxGeometry x="330" y="-50" width="110" height="110" as="geometry" />
        </mxCell>
        <mxCell id="Wrb9--33hP8pwqUoPA6g-8" value="ask the classroom email and code" style="whiteSpace=wrap;html=1;rounded=1;" vertex="1" parent="1">
          <mxGeometry x="130" y="-25" width="120" height="60" as="geometry" />
        </mxCell>
        <mxCell id="Wrb9--33hP8pwqUoPA6g-19" style="edgeStyle=orthogonalEdgeStyle;rounded=0;orthogonalLoop=1;jettySize=auto;html=1;" edge="1" parent="1" source="Wrb9--33hP8pwqUoPA6g-10" target="Wrb9--33hP8pwqUoPA6g-16">
          <mxGeometry relative="1" as="geometry" />
        </mxCell>
        <mxCell id="Wrb9--33hP8pwqUoPA6g-22" style="edgeStyle=orthogonalEdgeStyle;rounded=0;orthogonalLoop=1;jettySize=auto;html=1;entryX=0.5;entryY=0;entryDx=0;entryDy=0;" edge="1" parent="1" source="Wrb9--33hP8pwqUoPA6g-10" target="Wrb9--33hP8pwqUoPA6g-14">
          <mxGeometry relative="1" as="geometry" />
        </mxCell>
        <mxCell id="Wrb9--33hP8pwqUoPA6g-23" style="edgeStyle=orthogonalEdgeStyle;rounded=0;orthogonalLoop=1;jettySize=auto;html=1;entryX=0.575;entryY=-0.017;entryDx=0;entryDy=0;entryPerimeter=0;" edge="1" parent="1" source="Wrb9--33hP8pwqUoPA6g-10" target="Wrb9--33hP8pwqUoPA6g-12">
          <mxGeometry relative="1" as="geometry">
            <Array as="points">
              <mxPoint x="660" y="90" />
              <mxPoint x="420" y="90" />
              <mxPoint x="420" y="139" />
            </Array>
          </mxGeometry>
        </mxCell>
        <mxCell id="Wrb9--33hP8pwqUoPA6g-24" style="edgeStyle=orthogonalEdgeStyle;rounded=0;orthogonalLoop=1;jettySize=auto;html=1;" edge="1" parent="1" source="Wrb9--33hP8pwqUoPA6g-10" target="Wrb9--33hP8pwqUoPA6g-20">
          <mxGeometry relative="1" as="geometry">
            <Array as="points">
              <mxPoint x="660" y="90" />
              <mxPoint x="887" y="90" />
            </Array>
          </mxGeometry>
        </mxCell>
        <mxCell id="Wrb9--33hP8pwqUoPA6g-10" value="get the details" style="whiteSpace=wrap;html=1;rounded=1;" vertex="1" parent="1">
          <mxGeometry x="600" y="-30" width="120" height="60" as="geometry" />
        </mxCell>
        <mxCell id="Wrb9--33hP8pwqUoPA6g-12" value="ClassName" style="whiteSpace=wrap;html=1;rounded=1;" vertex="1" parent="1">
          <mxGeometry x="354" y="140" width="120" height="60" as="geometry" />
        </mxCell>
        <mxCell id="Wrb9--33hP8pwqUoPA6g-14" value="section" style="whiteSpace=wrap;html=1;rounded=1;" vertex="1" parent="1">
          <mxGeometry x="680" y="140" width="120" height="60" as="geometry" />
        </mxCell>
        <mxCell id="Wrb9--33hP8pwqUoPA6g-16" value="Subject" style="whiteSpace=wrap;html=1;rounded=1;" vertex="1" parent="1">
          <mxGeometry x="515" y="140" width="120" height="60" as="geometry" />
        </mxCell>
        <mxCell id="Wrb9--33hP8pwqUoPA6g-20" value="Room" style="rounded=1;whiteSpace=wrap;html=1;" vertex="1" parent="1">
          <mxGeometry x="827" y="140" width="120" height="60" as="geometry" />
        </mxCell>
      </root>
    </mxGraphModel>
  </diagram>
</mxfile>
